<svg xmlns="http://www.w3.org/2000/svg" xmlns:xlink="http://www.w3.org/1999/xlink" viewBox="0 0 258.96 238.13"><defs><style>.cls-1{isolation:isolate;}.cls-2{opacity:0.4;mix-blend-mode:multiply;fill:url(#linear-gradient);}.cls-3{fill:#cec09f;}.cls-4,.cls-7{fill:#a8dedb;}.cls-5,.cls-6{fill:none;}.cls-5{stroke:#212683;}.cls-5,.cls-6,.cls-7{stroke-miterlimit:10;stroke-width:6px;}.cls-6,.cls-7{stroke:#1f2687;}.cls-8{fill:#212683;}</style><linearGradient id="linear-gradient" x1="195.1" y1="552.97" x2="418.54" y2="552.97" gradientTransform="translate(-470.4 -77.83) rotate(-42)" gradientUnits="userSpaceOnUse"><stop offset="0" stop-color="#efa6c2"/><stop offset="1" stop-color="#96cdbd"/></linearGradient></defs><title>Mobile Cage</title><g class="cls-1"><g id="Layer_2" data-name="Layer 2"><g id="Layer_1-2" data-name="Layer 1"><path class="cls-2" d="M171.63,67.57A53.78,53.78,0,1,0,66.11,58.88a68.07,68.07,0,1,0,62,100.32,68.09,68.09,0,1,0,43.57-91.63Z"/><rect class="cls-3" x="43.76" y="79.44" width="178.6" height="116.2" rx="24.08" ry="24.08"/><rect class="cls-4" x="99.62" y="132.21" width="66.88" height="10.66"/><path class="cls-5" d="M43.76,131V102.23A22.79,22.79,0,0,1,66.55,79.44h133a22.8,22.8,0,0,1,22.8,22.79V131"/><path class="cls-5" d="M146.92,199.2h52.64a22.8,22.8,0,0,0,22.8-22.79V142.87"/><path class="cls-5" d="M119.19,199.2H66.55a22.79,22.79,0,0,1-22.79-22.79V142.87"/><line class="cls-6" x1="167.95" y1="142.88" x2="98.16" y2="142.88"/><line class="cls-6" x1="167.95" y1="130.99" x2="98.16" y2="130.99"/><path class="cls-7" d="M185.62,131h39.93a5.94,5.94,0,1,1,0,11.88H185.62"/><path class="cls-7" d="M80.49,142.88H40.56a5.94,5.94,0,1,1,0-11.88H80.49"/><rect class="cls-7" x="80.49" y="120.94" width="17.67" height="33.21" rx="5.64" ry="5.64"/><rect class="cls-7" x="167.95" y="120.94" width="17.67" height="33.21" rx="5.64" ry="5.64"/><rect class="cls-7" x="112.8" y="56.13" width="40.52" height="13.24" rx="5.63" ry="5.63"/><circle class="cls-8" cx="133.06" cy="199.2" r="3.55"/><path class="cls-5" d="M112.8,63.74H94.37a5,5,0,0,0-5,5V79.44"/><path class="cls-5" d="M153.31,63.74h18.42a5,5,0,0,1,5,5V79.44"/><line class="cls-5" x1="43.76" y1="176.41" x2="222.35" y2="176.41"/><line class="cls-5" x1="87.49" y1="91.63" x2="87.49" y2="109.61"/><line class="cls-5" x1="105.81" y1="91.63" x2="105.81" y2="109.61"/><line class="cls-5" x1="124.13" y1="91.63" x2="124.13" y2="109.61"/><line class="cls-5" x1="142.44" y1="91.63" x2="142.44" y2="109.61"/><line class="cls-5" x1="160.76" y1="91.63" x2="160.76" y2="109.61"/><line class="cls-5" x1="179.07" y1="91.63" x2="179.07" y2="109.61"/><path class="cls-8" d="M63.71,27.18H60.95V24.43a3.4,3.4,0,0,0-6.79,0v2.76H51.4a3.4,3.4,0,0,0,0,6.79h2.76v2.76a3.4,3.4,0,0,0,6.79,0V34h2.76a3.4,3.4,0,0,0,0-6.79Z"/><path class="cls-8" d="M238.06,23.45H235.3V20.7a3.4,3.4,0,0,0-6.79,0v2.76h-2.76a3.4,3.4,0,0,0,0,6.79h2.76V33a3.4,3.4,0,0,0,6.79,0V30.25h2.76a3.4,3.4,0,0,0,0-6.79Z"/><path class="cls-8" d="M107.21,225.18h-2.76v-2.76a3.4,3.4,0,0,0-6.79,0v2.76H94.91a3.4,3.4,0,0,0,0,6.79h2.76v2.76a3.4,3.4,0,0,0,6.79,0V232h2.76a3.4,3.4,0,0,0,0-6.79Z"/></g></g></g></svg>