<svg xmlns="http://www.w3.org/2000/svg" xmlns:xlink="http://www.w3.org/1999/xlink" viewBox="0 0 258.96 221.44"><defs><style>.cls-1{isolation:isolate;}.cls-2{opacity:0.4;mix-blend-mode:multiply;fill:url(#linear-gradient);}.cls-3{fill:#9dcc96;}.cls-4{fill:#cec09f;}.cls-4,.cls-5{stroke:#212683;}.cls-4,.cls-5,.cls-6{stroke-miterlimit:10;stroke-width:6px;}.cls-5{fill:none;}.cls-6{fill:#a8dedb;stroke:#1f2687;}.cls-7{fill:#212683;}</style><linearGradient id="linear-gradient" x1="551.88" y1="-407.55" x2="775.31" y2="-407.55" gradientTransform="translate(-92.87 874.75) rotate(-42)" gradientUnits="userSpaceOnUse"><stop offset="0" stop-color="#efa6c2"/><stop offset="1" stop-color="#96cdbd"/></linearGradient></defs><title>Home</title><g class="cls-1"><g id="Layer_2" data-name="Layer 2"><g id="Layer_1-2" data-name="Layer 1"><path class="cls-2" d="M171.63,67.57A53.78,53.78,0,1,0,66.11,58.88a68.07,68.07,0,1,0,62,100.32,68.09,68.09,0,1,0,43.57-91.63Z"/><polygon class="cls-3" points="205.76 82.86 205.76 186.06 76.73 186.06 76.73 82.86 121.34 38.26 161.16 38.26 205.76 82.86"/><path class="cls-4" d="M223.31,108.54l-7.89,7.89a5.74,5.74,0,0,1-8.13,0l-1.53-1.52h0L145.31,54.46a5.74,5.74,0,0,0-8.13,0L103,88.61l-26.31,26.3-1.52,1.52a5.74,5.74,0,0,1-8.13,0l-7.9-7.89a5.76,5.76,0,0,1,0-8.13L76.73,82.86l44.61-44.61,3.88-3.88-.1-.11,16-16,.11.11.1-.11,16,16-.1.11,3.88,3.88,44.6,44.61,17.55,17.55A5.74,5.74,0,0,1,223.31,108.54Z"/><path class="cls-5" d="M76.73,114.9h0v63.77a7.38,7.38,0,0,0,7.38,7.38H198.38a7.38,7.38,0,0,0,7.38-7.38V149.86"/><line class="cls-5" x1="205.76" y1="129.52" x2="205.76" y2="114.91"/><path class="cls-6" d="M141.25,140.3h0a16.36,16.36,0,0,1,16.36,16.36v29.4a0,0,0,0,1,0,0H124.88a0,0,0,0,1,0,0v-29.4A16.36,16.36,0,0,1,141.25,140.3Z"/><line class="cls-5" x1="76.73" y1="160.97" x2="124.88" y2="160.97"/><line class="cls-5" x1="157.61" y1="160.73" x2="205.76" y2="160.73"/><circle class="cls-7" cx="205.76" cy="140.13" r="2.69"/><path class="cls-7" d="M62.11,27.64H59.35V24.89a3.4,3.4,0,0,0-6.79,0v2.76H49.8a3.4,3.4,0,0,0,0,6.79h2.76v2.76a3.4,3.4,0,0,0,6.79,0V34.44h2.76a3.4,3.4,0,0,0,0-6.79Z"/><path class="cls-7" d="M231.15,34.86h-2.76V32.1a3.4,3.4,0,0,0-6.79,0v2.76h-2.76a3.4,3.4,0,0,0,0,6.79h2.76v2.76a3.4,3.4,0,0,0,6.79,0V41.65h2.76a3.4,3.4,0,0,0,0-6.79Z"/><path class="cls-7" d="M47.44,208.49H44.68v-2.76a3.4,3.4,0,0,0-6.79,0v2.76H35.13a3.4,3.4,0,0,0,0,6.79h2.76V218a3.4,3.4,0,0,0,6.79,0v-2.76h2.76a3.4,3.4,0,0,0,0-6.79Z"/><rect class="cls-6" x="119.67" y="87.25" width="10.08" height="17.35" rx="5.04" ry="5.04"/><rect class="cls-6" x="152.73" y="87.25" width="10.08" height="17.35" rx="5.04" ry="5.04"/><rect class="cls-6" x="136.2" y="77.42" width="10.08" height="17.35" rx="5.04" ry="5.04"/><path class="cls-6" d="M155.55,121.06l-5.62-9.74a10,10,0,0,0-17.37,0l-5.62,9.74-.1.18c-3.09,5.6,3.06,11.6,8.77,8.72a12.58,12.58,0,0,1,11.29,0c5.71,2.88,11.86-3.12,8.77-8.72Z"/><line class="cls-5" x1="103.04" y1="88.61" x2="103.04" y2="129.52"/><line class="cls-5" x1="103.04" y1="134.7" x2="103.04" y2="142.82"/></g></g></g></svg>