<svg xmlns="http://www.w3.org/2000/svg" xmlns:xlink="http://www.w3.org/1999/xlink" viewBox="0 0 220.28 227.15"><defs><style>.cls-1{isolation:isolate;}.cls-2{opacity:0.4;mix-blend-mode:multiply;fill:url(#linear-gradient);}.cls-3{fill:#a8dedb;}.cls-3,.cls-6{stroke:#1f2687;}.cls-3,.cls-5,.cls-6{stroke-miterlimit:10;stroke-width:6px;}.cls-4{fill:#212683;}.cls-5{fill:none;stroke:#212683;}.cls-6{fill:#f2a7c5;}</style><linearGradient id="linear-gradient" y1="113.5" x2="195.99" y2="113.5" gradientUnits="userSpaceOnUse"><stop offset="0" stop-color="#efa6c2"/><stop offset="1" stop-color="#96cdbd"/></linearGradient></defs><title>Pet Tools</title><g class="cls-1"><g id="Layer_2" data-name="Layer 2"><g id="Layer_1-2" data-name="Layer 1"><path class="cls-2" d="M196,64.6a64.61,64.61,0,0,0-122.81-28A48.35,48.35,0,1,0,37.5,125.16,78.05,78.05,0,1,0,178.67,108.6,64.35,64.35,0,0,0,196,64.6Z"/><path class="cls-3" d="M192.49,71.83h13.17a11.62,11.62,0,0,1,11.62,11.62v90.69a11.62,11.62,0,0,1-11.62,11.62H47A11.63,11.63,0,0,1,35.4,174.14V83.45A11.63,11.63,0,0,1,47,71.83H60.2"/><path class="cls-4" d="M127.52,214.21h-2.76v-2.76a3.4,3.4,0,0,0-6.79,0v2.76h-2.76a3.4,3.4,0,0,0,0,6.79H118v2.76a3.4,3.4,0,0,0,6.79,0V221h2.76a3.4,3.4,0,0,0,0-6.79Z"/><path class="cls-4" d="M41.56,38.58H38.8V35.82a3.4,3.4,0,0,0-6.79,0v2.76H29.25a3.4,3.4,0,0,0,0,6.79H32v2.76a3.4,3.4,0,0,0,6.79,0V45.37h2.76a3.4,3.4,0,0,0,0-6.79Z"/><path class="cls-4" d="M213.89,29h-2.76V26.27a3.4,3.4,0,0,0-6.79,0V29h-2.76a3.4,3.4,0,0,0,0,6.79h2.76v2.76a3.4,3.4,0,0,0,6.79,0V35.82h2.76a3.4,3.4,0,0,0,0-6.79Z"/><line class="cls-5" x1="175.51" y1="71.83" x2="77.18" y2="71.83"/><rect class="cls-6" x="60.19" y="68.07" width="17" height="27.51" rx="4.01" ry="4.01"/><rect class="cls-6" x="175.5" y="68.07" width="17" height="27.51" rx="4.01" ry="4.01"/><path class="cls-5" d="M68.69,68.08V62A18.39,18.39,0,0,1,75,48.09h0a18.39,18.39,0,0,1,12.05-4.5h22.71"/><path class="cls-5" d="M140.29,43.59h25.32a18.39,18.39,0,0,1,12.05,4.5h0A18.39,18.39,0,0,1,184,62v6.1"/><rect class="cls-6" x="109.79" y="36.84" width="30.5" height="13.5" rx="2.75" ry="2.75"/><rect class="cls-6" x="96.27" y="107.02" width="14.05" height="24.17" rx="7.03" ry="7.03"/><rect class="cls-6" x="142.36" y="107.02" width="14.05" height="24.17" rx="7.03" ry="7.03"/><rect class="cls-6" x="119.31" y="93.32" width="14.05" height="24.17" rx="7.03" ry="7.03"/><path class="cls-6" d="M146.29,154.15l-7.84-13.58a14,14,0,0,0-24.21,0l-7.84,13.58-.14.25c-4.3,7.8,4.26,16.16,12.22,12.15a17.53,17.53,0,0,1,15.73,0c8,4,16.53-4.34,12.22-12.15Z"/><line class="cls-5" x1="68.69" y1="95.59" x2="68.69" y2="185.76"/><line class="cls-5" x1="184" y1="185.76" x2="184" y2="150.58"/><line class="cls-5" x1="184" y1="127.42" x2="184" y2="95.59"/><circle class="cls-4" cx="184" cy="139" r="3.88" transform="translate(-44.19 172.25) rotate(-45.36)"/><line class="cls-5" x1="50.66" y1="185.76" x2="50.66" y2="139"/><line class="cls-5" x1="50.66" y1="125.09" x2="50.66" y2="133.58"/></g></g></g></svg>