<svg xmlns="http://www.w3.org/2000/svg" xmlns:xlink="http://www.w3.org/1999/xlink" viewBox="0 0 248.57 230.5"><defs><style>.cls-1{isolation:isolate;}.cls-2{opacity:0.4;mix-blend-mode:multiply;fill:url(#linear-gradient);}.cls-3,.cls-6{fill:#9dcc96;}.cls-4{fill:none;}.cls-4,.cls-6,.cls-7{stroke:#212683;}.cls-4,.cls-5,.cls-6,.cls-7{stroke-miterlimit:10;stroke-width:6px;}.cls-5{fill:#a8dedb;stroke:#1f2687;}.cls-7{fill:#cec09f;}.cls-8{fill:#212683;}</style><linearGradient id="linear-gradient" x1="-1085.22" y1="-871.33" x2="-880.83" y2="-871.33" gradientTransform="translate(1050.84 -823.56) rotate(-86.2)" gradientUnits="userSpaceOnUse"><stop offset="0" stop-color="#efa6c2"/><stop offset="1" stop-color="#96cdbd"/></linearGradient></defs><title>Shampoo</title><g class="cls-1"><g id="Layer_2" data-name="Layer 2"><g id="Layer_1-2" data-name="Layer 1"><path class="cls-2" d="M100.21,52.93a56.58,56.58,0,0,0,2,19.29,67.89,67.89,0,1,0,18.23,101.45A56.69,56.69,0,1,0,196.58,97a56.68,56.68,0,1,0-96.37-44.1Z"/><path class="cls-3" d="M75.55,61h60.39a23.23,23.23,0,0,1,23.23,23.23V220.8a0,0,0,0,1,0,0H57.42a5.1,5.1,0,0,1-5.1-5.1V84.22A23.23,23.23,0,0,1,75.55,61Z"/><path class="cls-4" d="M153.33,220.57h0a7.58,7.58,0,0,1-1.86.23H60a7.71,7.71,0,0,1-7.72-7.71v-10"/><path class="cls-4" d="M52.32,182.72V81.6a22.14,22.14,0,0,1,22-22.13h62.88a22.13,22.13,0,0,1,22,22.13V164"/><path class="cls-5" d="M80.1,32.7h51.29a5.8,5.8,0,0,1,5.8,5.8v21a0,0,0,0,1,0,0H74.31a0,0,0,0,1,0,0v-21A5.8,5.8,0,0,1,80.1,32.7Z"/><path class="cls-6" d="M96,5.11h19.49a12.25,12.25,0,0,1,12.25,12.25V32.7a0,0,0,0,1,0,0h-44a0,0,0,0,1,0,0V17.36A12.25,12.25,0,0,1,96,5.11Z"/><path class="cls-6" d="M128,11.09h35.85A9.18,9.18,0,0,1,173,20.27v0a2.64,2.64,0,0,1-2.64,2.64H128a0,0,0,0,1,0,0V11.09a0,0,0,0,1,0,0Z"/><rect class="cls-7" x="79.24" y="101.66" width="12.39" height="21.32" rx="6.2" ry="6.2"/><rect class="cls-7" x="119.87" y="101.66" width="12.39" height="21.32" rx="6.2" ry="6.2"/><rect class="cls-7" x="99.55" y="89.58" width="12.39" height="21.32" rx="6.2" ry="6.2"/><path class="cls-7" d="M123.33,143.21l-6.91-12a12.33,12.33,0,0,0-21.35,0l-6.91,12-.13.22c-3.79,6.88,3.76,14.25,10.78,10.71a15.45,15.45,0,0,1,13.87,0c7,3.54,14.57-3.83,10.78-10.71Z"/><path class="cls-8" d="M76.77,176.48h58c3.22,0,3.22-5,0-5h-58c-3.22,0-3.22,5,0,5Z"/><path class="cls-8" d="M88,195.39h35.57c3.22,0,3.22-5,0-5H88c-3.22,0-3.22,5,0,5Z"/><path class="cls-5" d="M232.25,182a6,6,0,0,1-1.29-5.49,19.27,19.27,0,0,0,.74-5.3,19.54,19.54,0,0,0-19.54-19.54h0a6.16,6.16,0,0,1-4.72-2,27.62,27.62,0,0,0-48.27,14.5,6,6,0,0,1-3.3,4.61,29.64,29.64,0,1,0,29.48,51.28,6.15,6.15,0,0,1,7.54.5A27.62,27.62,0,0,0,232.25,182Z"/><circle class="cls-5" cx="225.14" cy="127.85" r="12.65"/><circle class="cls-5" cx="187.24" cy="106.69" r="9.37"/><path class="cls-8" d="M48.92,15.51H46.16V12.75a3.4,3.4,0,0,0-6.79,0v2.76H36.62a3.4,3.4,0,0,0,0,6.79h2.76v2.76a3.4,3.4,0,0,0,6.79,0V22.3h2.76a3.4,3.4,0,0,0,0-6.79Z"/><path class="cls-8" d="M245.17,48h-2.76V45.28a3.4,3.4,0,0,0-6.79,0V48h-2.76a3.4,3.4,0,0,0,0,6.79h2.76v2.76a3.4,3.4,0,0,0,6.79,0V54.83h2.76a3.4,3.4,0,0,0,0-6.79Z"/><path class="cls-8" d="M23.72,199.64H21v-2.76a3.4,3.4,0,0,0-6.79,0v2.76H11.41a3.4,3.4,0,0,0,0,6.79h2.76v2.76a3.4,3.4,0,0,0,6.79,0v-2.76h2.76a3.4,3.4,0,0,0,0-6.79Z"/><circle class="cls-8" cx="52.32" cy="192.89" r="2.69"/><path class="cls-4" d="M224.14,195.49h0A15.12,15.12,0,0,1,209,210.61h-2"/><path class="cls-4" d="M128,71.36h9.2A8.62,8.62,0,0,1,145.84,80v9.59"/><line class="cls-4" x1="74.31" y1="46.86" x2="137.19" y2="46.86"/></g></g></g></svg>