<svg xmlns="http://www.w3.org/2000/svg" xmlns:xlink="http://www.w3.org/1999/xlink" viewBox="0 0 258.96 235.43"><defs><style>.cls-1{isolation:isolate;}.cls-2{opacity:0.4;mix-blend-mode:multiply;fill:url(#linear-gradient);}.cls-3{fill:#f2a7c5;}.cls-4{fill:#212683;}.cls-5{fill:none;}.cls-5,.cls-6{stroke:#212683;stroke-miterlimit:10;stroke-width:6px;}.cls-6{fill:#9faed0;}</style><linearGradient id="linear-gradient" x1="608.58" y1="353.28" x2="832.01" y2="353.28" gradientTransform="translate(-644.08 347.24) rotate(-42)" gradientUnits="userSpaceOnUse"><stop offset="0" stop-color="#efa6c2"/><stop offset="1" stop-color="#96cdbd"/></linearGradient></defs><title>Vaccine</title><g class="cls-1"><g id="Layer_2" data-name="Layer 2"><g id="Layer_1-2" data-name="Layer 1"><path class="cls-2" d="M171.63,67.57A53.78,53.78,0,1,0,66.11,58.88a68.07,68.07,0,1,0,62,100.32,68.09,68.09,0,1,0,43.57-91.63Z"/><path class="cls-3" d="M165.13,123.63l-1.41,1.43L150,138.9l-13.67,13.83-13.66,13.84L102.54,187a4.59,4.59,0,0,1-6.5,0l-4-3.94-.38-.38-.47.47L81,173.21l-1.85-1.8-5-4.9,3.08-3.08L96.3,144.35a2.92,2.92,0,0,1-.27-.24,3.88,3.88,0,1,1,5.45-5.53,4.11,4.11,0,0,1,.28.31L146.63,94l5.23,4.67,3.32,3,.1.09,0,.14h0L154,113.25l.4.37Z"/><path class="cls-4" d="M66.52,50.55H63.77V47.79a3.4,3.4,0,0,0-6.79,0v2.76H54.22a3.4,3.4,0,0,0,0,6.79H57V60.1a3.4,3.4,0,0,0,6.79,0V57.34h2.76a3.4,3.4,0,0,0,0-6.79Z"/><path class="cls-4" d="M207.06,150.57H204.3v-2.76a3.4,3.4,0,0,0-6.79,0v2.76h-2.76a3.4,3.4,0,0,0,0,6.79h2.76v2.76a3.4,3.4,0,0,0,6.79,0v-2.76h2.76a3.4,3.4,0,0,0,0-6.79Z"/><path class="cls-4" d="M114.45,219.72H111.7V217a3.4,3.4,0,0,0-6.79,0v2.76h-2.76a3.4,3.4,0,0,0,0,6.79h2.76v2.76a3.4,3.4,0,0,0,6.79,0v-2.76h2.76a3.4,3.4,0,0,0,0-6.79Z"/><path class="cls-4" d="M101.52,144.07a3.89,3.89,0,0,1-5.22.28,2.92,2.92,0,0,1-.27-.24,3.88,3.88,0,1,1,5.45-5.53,4.11,4.11,0,0,1,.28.31A3.89,3.89,0,0,1,101.52,144.07Z"/><path class="cls-5" d="M88.56,151.78,77.85,162.62a4.6,4.6,0,0,0,0,6.5l3.61,3.57,10.16,10,.38.38L96,187a4.59,4.59,0,0,0,6.5,0l20.18-20.43,13.66-13.84L150,138.9l13.67-13.84,1.41-1.43.72-.72,11.54-11.69,21-21.33-7.24-7.15-4-3.92-.36-.37-.05,0-9-8.93-4-4-26.65,27-1,1L109.87,130.2"/><path class="cls-6" d="M91.67,182.72l-.47.47-11,11.13a7.14,7.14,0,0,1-10.16-10L81,173.21l.52-.52Z"/><line class="cls-5" x1="207.82" y1="99.15" x2="164.98" y2="56.85"/><path class="cls-4" d="M33.49,234.69,71.72,196c2.26-2.29-1.27-5.83-3.54-3.54L30,231.15c-2.26,2.29,1.27,5.83,3.54,3.54Z"/><polyline class="cls-6" points="197.17 57.7 181.64 73.23 186.41 78 186.81 78.4 186.86 78.45 187.22 78.82 191.17 82.77 191.2 82.74 206.7 67.24"/><path class="cls-5" d="M146.93,92.33l6.49,6.49a7.33,7.33,0,0,1,1.74,7.58h0a7.33,7.33,0,0,0,1.74,7.58l9.33,9.33"/><line class="cls-5" x1="155.47" y1="112.54" x2="122.22" y2="145.79"/><line class="cls-5" x1="118.15" y1="149.86" x2="114.04" y2="153.97"/><path class="cls-6" d="M220.88,15.9a27.63,27.63,0,0,0-14.19,51.33h0A27.63,27.63,0,1,0,220.88,15.9Zm0,39.13a11.5,11.5,0,1,1,11.5-11.5A11.5,11.5,0,0,1,220.88,55Z"/></g></g></g></svg>